<svg xmlns="http://www.w3.org/2000/svg" viewBox="0 0 1200 630" width="1200" height="630" role="img" aria-label="Finanzas Snake - OG Image">
  <defs>
    <!-- Fuentes premium de sistema / Google Fonts fallback -->
    <style>
      @import url('https://fonts.googleapis.com/css2?family=Plus+Jakarta+Sans:wght@400;500;600;700;800&amp;display=swap');
      .brand-title { font-family: 'Plus Jakarta Sans', -apple-system, sans-serif; font-weight: 800; font-size: 20px; letter-spacing: 4px; fill: #818CF8; }
      .main-heading { font-family: 'Plus Jakarta Sans', -apple-system, sans-serif; font-weight: 800; font-size: 48px; fill: #FFFFFF; font-height: 1.25; }
      .main-heading-accent { fill: #818CF8; }
      .badge-text { font-family: 'Plus Jakarta Sans', -apple-system, sans-serif; font-weight: 600; font-size: 14px; fill: #E2E8F0; letter-spacing: 0.5px; }
      .glow-layer { mix-blend-mode: screen; }
    </style>

    <!-- Gradiente de fondo premium -->
    <linearGradient id="bg" x1="0" y1="0" x2="1" y2="1">
      <stop offset="0" stop-color="#111335"/>
      <stop offset="1" stop-color="#050714"/>
    </linearGradient>

    <!-- Gradiente para el logo del cliente -->
    <linearGradient id="logo-bg" x1="0" y1="0" x2="1" y2="1">
      <stop offset="0" stop-color="#151844"/>
      <stop offset="1" stop-color="#070b1f"/>
    </linearGradient>

    <!-- Gradiente para los bordes activos de los Badges -->
    <linearGradient id="border-grad" x1="0" y1="0" x2="1" y2="0">
      <stop offset="0" stop-color="#818CF8" stop-opacity="0.4"/>
      <stop offset="1" stop-color="#312E81" stop-opacity="0.1"/>
    </linearGradient>
    
    <!-- Retícula técnica financiera con desfase adaptado a 1200px -->
    <pattern id="grid" width="30" height="30" patternUnits="userSpaceOnUse">
      <path d="M 30 0 L 0 0 0 30" fill="none" stroke="#FFFFFF" stroke-opacity="0.035" stroke-width="1"/>
    </pattern>

    <!-- Resplandor radial tecnológico para el fondo del isotipo -->
    <radialGradient id="radial-glow" cx="50%" cy="50%" r="50%">
      <stop offset="0%" stop-color="#4F46E5" stop-opacity="0.25" />
      <stop offset="100%" stop-color="#4F46E5" stop-opacity="0" />
    </radialGradient>

    <!-- Filtro de sombra suave para la tarjeta del isotipo -->
    <filter id="soft-shadow" x="-10%" y="-10%" width="120%" height="130%">
      <feDropShadow dx="0" dy="5" stdDeviation="4.5" flood-color="#000000" flood-opacity="0.45"/>
    </filter>

    <filter id="card-shadow" x="-15%" y="-15%" width="130%" height="130%">
      <feDropShadow dx="0" dy="12" stdDeviation="15" flood-color="#000000" flood-opacity="0.6"/>
    </filter>
  </defs>

  <!-- Fondo base oscuro -->
  <rect width="1200" height="630" fill="url(#bg)"/>

  <!-- Resplandor tridimensional detrás de la tarjeta del logo -->
  <circle cx="920" cy="315" r="350" fill="url(#radial-glow)" class="glow-layer" />

  <!-- Cuadrícula técnica superpuesta -->
  <rect width="1200" height="630" fill="url(#grid)"/>

  <!-- ================= IZQUIERDA: CONTENIDO TEXTUAL ================= -->
  
  <!-- Marca / Header -->
  <g transform="translate(80, 90)">
    <!-- Pequeño indicador tecnológico -->
    <rect width="6" height="24" rx="3" fill="#818CF8" />
    <text x="20" y="19" class="brand-title">FINANZAS SNAKE</text>
  </g>

  <!-- Título Principal (Gestión de finanzas personales...) -->
  <g transform="translate(80, 180)">
    <text class="main-heading">
      <tspan x="0" dy="0">Gestión de finanzas</tspan>
      <tspan x="0" dy="65">personales con</tspan>
      <tspan x="0" dy="65" class="main-heading-accent">inteligencia artificial</tspan>
    </text>
  </g>

  <!-- Sección de Badges / Features (Matriz 2x2 para legibilidad extrema) -->
  <g transform="translate(80, 390)">
    
    <!-- Badge 1: Presupuestos -->
    <g transform="translate(0, 0)">
      <rect width="165" height="42" rx="12" fill="#131535" fill-opacity="0.6" stroke="url(#border-grad)" stroke-width="1.5"/>
      <circle cx="22" cy="21" r="4" fill="#818CF8"/>
      <text x="38" y="26" class="badge-text">Presupuestos</text>
    </g>

    <!-- Badge 2: Deudas -->
    <g transform="translate(185, 0)">
      <rect width="120" height="42" rx="12" fill="#131535" fill-opacity="0.6" stroke="url(#border-grad)" stroke-width="1.5"/>
      <circle cx="22" cy="21" r="4" fill="#818CF8"/>
      <text x="38" y="26" class="badge-text">Deudas</text>
    </g>

    <!-- Badge 3: Asesoría IA -->
    <g transform="translate(0, 62)">
      <rect width="150" height="42" rx="12" fill="#131535" fill-opacity="0.6" stroke="url(#border-grad)" stroke-width="1.5"/>
      <!-- Icono IA sutil de 3 chispas en vez de punto plano -->
      <circle cx="22" cy="21" r="4" fill="#6EE7B7"/>
      <text x="38" y="26" class="badge-text" style="fill: #6EE7B7;">Asesoría IA</text>
    </g>

    <!-- Badge 4: Sincronización P2P -->
    <g transform="translate(170, 62)">
      <rect width="195" height="42" rx="12" fill="#131535" fill-opacity="0.6" stroke="url(#border-grad)" stroke-width="1.5"/>
      <circle cx="22" cy="21" r="4" fill="#818CF8"/>
      <text x="38" y="26" class="badge-text">Sincronización P2P</text>
    </g>
  </g>

  <!-- ================= DERECHA: TARJETA DEL ISOTIPO ================= -->
  
  <!-- Tarjeta contenedora alineada simétricamente a la derecha -->
  <g transform="translate(730, 110)" filter="url(#card-shadow)">
    
    <!-- Contenedor Base (Squircle de la aplicación en proporción 1.6x) -->
    <rect width="390" height="390" rx="85" fill="url(#logo-bg)"/>
    
    <!-- Grid interno de la tarjeta redondeada -->
    <rect width="390" height="390" rx="85" fill="url(#grid)" opacity="0.9"/>
    
    <!-- Borde interior ultra-fino para simular cristal (Efecto tridimensional) -->
    <rect width="390" height="390" rx="85" fill="none" stroke="#FFFFFF" stroke-opacity="0.04" stroke-width="2"/>

    <!-- Isotipo corregido con la matriz de mapeo homotético pixel-perfect -->
    <g transform="translate(-31.91, -31.91) scale(1.772727)">
      <path d="M 217.62 46.06 L 217.13 45.69 L 216.66 45.35 L 216.19 45.02 L 215.73 44.70 L 215.28 44.40 L 214.83 44.11 L 214.39 43.84 L 213.96 43.58 L 213.54 43.34 L 213.12 43.11 L 212.72 42.90 L 212.32 42.71 L 211.92 42.52 L 211.54 42.36 L 211.16 42.21 L 210.79 42.07 L 210.43 41.95 L 210.05 41.83 L 209.65 41.72 L 209.23 41.61 L 208.79 41.50 L 208.33 41.40 L 207.86 41.30 L 207.36 41.21 L 206.85 41.12 L 206.32 41.03 L 205.77 40.95 L 205.20 40.87 L 204.61 40.79 L 204.00 40.72 L 203.37 40.65 L 202.73 40.59 L 202.06 40.53 L 201.44 40.48 L 200.85 40.43 L 200.30 40.39 L 199.78 40.37 L 199.31 40.34 L 198.87 40.33 L 198.47 40.32 L 198.11 40.32 L 197.78 40.33 L 197.50 40.34 L 197.25 40.37 L 197.04 40.39 L 196.86 40.43 L 196.73 40.48 L 196.63 40.53 L 196.57 40.59 L 196.49 40.65 L 196.38 40.70 L 196.25 40.75 L 196.10 40.79 L 195.93 40.83 L 195.73 40.87 L 195.51 40.91 L 195.27 40.94 L 195.01 40.96 L 194.72 40.98 L 194.41 41.00 L 194.08 41.02 L 193.72 41.03 L 193.35 41.04 L 192.95 41.04 L 192.52 41.04 L 192.10 41.05 L 191.68 41.06 L 191.25 41.09 L 190.83 41.12 L 190.41 41.15 L 189.99 41.20 L 189.56 41.25 L 189.14 41.31 L 188.72 41.38 L 188.29 41.46 L 187.87 41.54 L 187.45 41.63 L 187.03 41.73 L 186.60 41.84 L 186.18 41.95 L 185.76 42.07 L 185.29 42.22 L 184.79 42.39 L 184.24 42.59 L 183.65 42.82 L 183.02 43.07 L 182.35 43.35 L 181.64 43.66 L 180.88 43.99 L 180.09 44.35 L 179.25 44.73 L 178.37 45.14 L 177.45 45.58 L 176.49 46.05 L 175.48 46.54 L 174.44 47.05 L 173.35 47.60 L 172.31 48.12 L 171.32 48.63 L 170.39 49.11 L 169.49 49.58 L 168.65 50.03 L 167.86 50.46 L 167.12 50.87 L 166.42 51.26 L 165.78 51.64 L 165.18 51.99 L 164.63 52.33 L 164.14 52.65 L 163.69 52.94 L 163.29 53.22 L 162.94 53.48 L 162.63 53.73 L 162.34 53.98 L 162.06 54.24 L 161.80 54.52 L 161.54 54.81 L 161.29 55.10 L 161.06 55.41 L 160.84 55.74 L 160.63 56.07 L 160.43 56.41 L 160.24 56.77 L 160.06 57.13 L 159.89 57.51 L 159.74 57.90 L 159.59 58.30 L 159.46 58.71 L 159.34 59.13 L 159.18 59.53 L 158.97 59.90 L 158.73 60.24 L 158.44 60.56 L 158.11 60.85 L 157.74 61.11 L 157.33 61.35 L 156.88 61.56 L 156.38 61.75 L 155.85 61.90 L 155.27 62.04 L 154.65 62.14 L 153.99 62.22 L 153.29 62.27 L 152.54 62.30 L 151.76 62.30 L 150.98 62.28 L 150.22 62.25 L 149.47 62.21 L 148.73 62.15 L 148.00 62.07 L 147.29 61.98 L 146.58 61.88 L 145.89 61.76 L 145.20 61.62 L 144.53 61.47 L 143.87 61.30 L 143.22 61.12 L 142.58 60.92 L 141.96 60.71 L 141.34 60.49 L 140.74 60.24 L 140.19 60.04 L 139.71 59.86 L 139.29 59.72 L 138.93 59.62 L 138.63 59.55 L 138.38 59.51 L 138.20 59.50 L 138.08 59.53 L 138.02 59.60 L 138.02 59.70 L 138.08 59.83 L 138.20 60.00 L 138.38 60.20 L 138.63 60.43 L 138.93 60.70 L 139.29 61.00 L 139.61 61.31 L 139.88 61.63 L 140.11 61.95 L 140.29 62.29 L 140.42 62.63 L 140.51 62.97 L 140.56 63.33 L 140.56 63.69 L 140.51 64.06 L 140.42 64.44 L 140.29 64.82 L 140.11 65.22 L 139.88 65.62 L 139.61 66.02 L 139.29 66.44 L 138.93 66.86 L 138.62 67.24 L 138.36 67.58 L 138.16 67.88 L 138.01 68.14 L 137.91 68.35 L 137.86 68.52 L 137.87 68.66 L 137.93 68.75 L 138.04 68.80 L 138.21 68.80 L 138.43 68.77 L 138.70 68.69 L 139.03 68.58 L 139.40 68.42 L 139.83 68.22 L 140.32 67.97 L 140.83 67.74 L 141.37 67.52 L 141.95 67.32 L 142.55 67.12 L 143.19 66.94 L 143.85 66.76 L 144.54 66.60 L 145.27 66.45 L 146.02 66.31 L 146.81 66.18 L 147.62 66.06 L 148.47 65.96 L 149.34 65.86 L 150.25 65.78 L 151.19 65.71 L 152.15 65.65 L 153.09 65.62 L 153.98 65.62 L 154.85 65.65 L 155.68 65.71 L 156.47 65.80 L 157.24 65.92 L 157.97 66.07 L 158.66 66.26 L 159.32 66.47 L 159.95 66.71 L 160.54 66.98 L 161.10 67.28 L 161.62 67.61 L 162.11 67.98 L 162.57 68.37 L 162.99 68.79 L 163.46 69.21 L 163.97 69.61 L 164.53 70.01 L 165.13 70.41 L 165.78 70.79 L 166.48 71.17 L 167.22 71.54 L 168.00 71.90 L 168.83 72.25 L 169.71 72.60 L 170.63 72.94 L 171.60 73.27 L 172.61 73.60 L 173.66 73.91 L 174.77 74.22 L 175.91 74.53 L 177.00 74.81 L 178.04 75.07 L 179.02 75.32 L 179.94 75.54 L 180.80 75.75 L 181.61 75.94 L 182.36 76.11 L 183.06 76.26 L 183.69 76.39 L 184.28 76.51 L 184.80 76.60 L 185.27 76.68 L 185.68 76.73 L 186.04 76.77 L 186.33 76.79 L 186.58 76.79 L 186.82 76.80 L 187.06 76.81 L 187.30 76.84 L 187.54 76.87 L 187.78 76.90 L 188.03 76.95 L 188.27 77.00 L 188.51 77.06 L 188.75 77.13 L 188.99 77.20 L 189.23 77.29 L 189.48 77.38 L 189.72 77.48 L 189.96 77.58 L 190.20 77.69 L 190.44 77.82 L 190.52 78.16 L 190.44 78.72 L 190.19 79.51 L 189.78 80.52 L 189.21 81.76 L 188.48 83.22 L 187.59 84.90 L 186.53 86.80 L 185.31 88.92 L 183.93 91.27 L 182.38 93.84 L 180.68 96.63 L 178.81 99.65 L 176.78 102.89 L 174.59 106.35 L 172.23 110.03 L 170.02 113.49 L 167.94 116.73 L 166.01 119.75 L 164.21 122.54 L 162.55 125.11 L 161.04 127.46 L 159.66 129.58 L 158.42 131.48 L 157.32 133.16 L 156.36 134.62 L 155.54 135.86 L 154.87 136.87 L 154.33 137.66 L 153.93 138.22 L 153.67 138.56 L 153.54 138.69 L 153.42 138.79 L 153.29 138.89 L 153.16 138.98 L 153.02 139.05 L 152.88 139.12 L 152.74 139.17 L 152.59 139.21 L 152.44 139.24 L 152.29 139.26 L 152.13 139.27 L 151.97 139.27 L 151.80 139.25 L 151.63 139.23 L 151.46 139.19 L 151.28 139.14 L 151.10 139.08 L 150.87 138.91 L 150.58 138.64 L 150.24 138.27 L 149.85 137.78 L 149.40 137.19 L 148.90 136.50 L 148.35 135.70 L 147.75 134.79 L 147.09 133.78 L 146.38 132.67 L 145.62 131.44 L 144.80 130.12 L 143.93 128.68 L 143.01 127.14 L 142.04 125.50 L 141.01 123.74 L 140.02 122.08 L 139.07 120.49 L 138.16 118.99 L 137.28 117.57 L 136.44 116.23 L 135.64 114.98 L 134.88 113.81 L 134.16 112.72 L 133.47 111.72 L 132.82 110.80 L 132.21 109.96 L 131.64 109.21 L 131.10 108.54 L 130.60 107.95 L 130.14 107.44 L 129.72 107.02 L 129.31 106.62 L 128.91 106.23 L 128.52 105.86 L 128.14 105.52 L 127.78 105.19 L 127.42 104.88 L 127.08 104.59 L 126.75 104.32 L 126.43 104.06 L 126.12 103.83 L 125.82 103.61 L 125.53 103.42 L 125.26 103.24 L 124.99 103.08 L 124.74 102.94 L 124.50 102.82 L 124.23 102.71 L 123.93 102.60 L 123.59 102.50 L 123.23 102.41 L 122.84 102.33 L 122.42 102.25 L 121.96 102.18 L 121.48 102.12 L 120.97 102.07 L 120.42 102.02 L 119.85 101.99 L 119.25 101.96 L 118.61 101.93 L 117.95 101.92 L 117.25 101.91 L 116.53 101.91 L 115.83 101.92 L 115.15 101.94 L 114.49 101.98 L 113.85 102.02 L 113.24 102.08 L 112.65 102.15 L 112.09 102.23 L 111.54 102.32 L 111.02 102.42 L 110.52 102.53 L 110.05 102.66 L 109.59 102.79 L 109.16 102.94 L 108.76 103.10 L 108.37 103.27 L 108.01 103.45 L 107.64 103.65 L 107.27 103.86 L 106.90 104.08 L 106.52 104.33 L 106.14 104.58 L 105.75 104.85 L 105.37 105.14 L 104.97 105.44 L 104.58 105.76 L 104.18 106.09 L 103.77 106.44 L 103.37 106.80 L 102.95 107.18 L 102.54 107.57 L 102.12 107.98 L 101.70 108.40 L 101.13 109.04 L 100.41 109.90 L 99.55 110.98 L 98.54 112.28 L 97.38 113.80 L 96.07 115.53 L 94.62 117.49 L 93.02 119.66 L 91.27 122.06 L 89.38 124.67 L 87.34 127.50 L 85.15 130.55 L 82.81 133.82 L 80.33 137.31 L 77.70 141.01 L 74.92 144.94 L 72.27 148.66 L 69.75 152.18 L 67.36 155.49 L 65.09 158.60 L 62.96 161.51 L 60.95 164.21 L 59.07 166.71 L 57.32 169.00 L 55.70 171.09 L 54.20 172.98 L 52.84 174.66 L 51.60 176.14 L 50.49 177.42 L 49.51 178.49 L 48.65 179.36 L 47.93 180.02 L 47.21 180.66 L 46.51 181.26 L 45.82 181.83 L 45.14 182.38 L 44.47 182.89 L 43.82 183.37 L 43.17 183.82 L 42.54 184.25 L 41.91 184.64 L 41.30 185.00 L 40.70 185.33 L 40.11 185.63 L 39.54 185.91 L 38.97 186.15 L 38.42 186.36 L 37.87 186.54 L 37.35 186.71 L 36.84 186.87 L 36.36 187.02 L 35.89 187.15 L 35.44 187.28 L 35.01 187.39 L 34.60 187.49 L 34.21 187.58 L 33.83 187.66 L 33.48 187.73 L 33.14 187.79 L 32.82 187.83 L 32.53 187.87 L 32.25 187.89 L 31.99 187.90 L 31.74 187.90 L 31.51 187.91 L 31.28 187.92 L 31.06 187.95 L 30.85 187.98 L 30.65 188.01 L 30.45 188.06 L 30.26 188.11 L 30.08 188.17 L 29.91 188.24 L 29.74 188.32 L 29.58 188.40 L 29.43 188.49 L 29.29 188.59 L 29.15 188.70 L 29.03 188.81 L 28.90 188.93 L 28.79 189.05 L 28.69 189.17 L 28.59 189.29 L 28.50 189.42 L 28.41 189.54 L 28.34 189.66 L 28.27 189.78 L 28.21 189.90 L 28.16 190.02 L 28.11 190.14 L 28.08 190.26 L 28.05 190.38 L 28.02 190.50 L 28.01 190.62 L 28.00 190.74 L 28.00 190.87 L 28.01 190.99 L 28.03 191.12 L 28.07 191.25 L 28.11 191.39 L 28.17 191.53 L 28.24 191.67 L 28.32 191.82 L 28.41 191.97 L 28.51 192.12 L 28.62 192.28 L 28.75 192.44 L 28.88 192.61 L 29.03 192.78 L 29.19 192.95 L 29.36 193.13 L 29.54 193.31 L 29.76 193.47 L 30.00 193.62 L 30.29 193.74 L 30.61 193.85 L 30.96 193.93 L 31.34 194.00 L 31.76 194.05 L 32.21 194.08 L 32.70 194.09 L 33.22 194.08 L 33.77 194.06 L 34.36 194.01 L 34.99 193.95 L 35.64 193.86 L 36.33 193.76 L 37.06 193.64 L 37.76 193.51 L 38.45 193.37 L 39.12 193.23 L 39.77 193.08 L 40.40 192.92 L 41.01 192.75 L 41.60 192.58 L 42.17 192.40 L 42.73 192.21 L 43.27 192.01 L 43.78 191.81 L 44.28 191.60 L 44.76 191.38 L 45.22 191.15 L 45.66 190.92 L 46.09 190.68 L 46.51 190.43 L 46.93 190.17 L 47.36 189.91 L 47.78 189.64 L 48.20 189.36 L 48.62 189.07 L 49.05 188.78 L 49.47 188.48 L 49.89 188.17 L 50.32 187.85 L 50.74 187.53 L 51.16 187.19 L 51.58 186.85 L 52.01 186.51 L 52.43 186.15 L 52.85 185.79 L 53.40 185.24 L 54.07 184.51 L 54.87 183.59 L 55.79 182.49 L 56.83 181.20 L 58.00 179.73 L 59.30 178.07 L 60.72 176.23 L 62.26 174.20 L 63.93 171.99 L 65.72 169.60 L 67.64 167.01 L 69.68 164.25 L 71.85 161.30 L 74.14 158.16 L 76.55 154.84 L 78.85 151.67 L 81.03 148.66 L 83.10 145.80 L 85.04 143.10 L 86.88 140.55 L 88.59 138.16 L 90.19 135.92 L 91.66 133.84 L 93.03 131.91 L 94.27 130.14 L 95.40 128.52 L 96.41 127.06 L 97.31 125.75 L 98.08 124.59 L 98.74 123.59 L 99.29 122.75 L 99.82 121.93 L 100.35 121.14 L 100.87 120.37 L 101.38 119.63 L 101.89 118.92 L 102.39 118.23 L 102.88 117.57 L 103.36 116.94 L 103.84 116.33 L 104.31 115.75 L 104.77 115.19 L 105.22 114.66 L 105.66 114.16 L 106.10 113.69 L 106.53 113.24 L 106.96 112.81 L 107.36 112.41 L 107.76 112.04 L 108.13 111.68 L 108.50 111.35 L 108.84 111.04 L 109.18 110.75 L 109.49 110.49 L 109.80 110.25 L 110.08 110.03 L 110.35 109.83 L 110.61 109.66 L 110.85 109.51 L 111.08 109.38 L 111.29 109.27 L 111.48 109.19 L 111.67 109.13 L 111.86 109.07 L 112.08 109.02 L 112.32 108.97 L 112.58 108.93 L 112.85 108.89 L 113.15 108.85 L 113.46 108.81 L 113.79 108.79 L 114.14 108.76 L 114.51 108.74 L 114.90 108.72 L 115.31 108.70 L 115.73 108.69 L 116.18 108.68 L 116.64 108.68 L 117.13 108.68 L 117.59 108.68 L 118.02 108.69 L 118.44 108.70 L 118.83 108.72 L 119.20 108.74 L 119.55 108.76 L 119.88 108.79 L 120.18 108.81 L 120.46 108.85 L 120.71 108.89 L 120.95 108.93 L 121.16 108.97 L 121.35 109.02 L 121.52 109.07 L 121.66 109.13 L 121.78 109.19 L 121.93 109.29 L 122.10 109.42 L 122.30 109.60 L 122.53 109.81 L 122.78 110.06 L 123.06 110.34 L 123.37 110.67 L 123.70 111.03 L 124.06 111.43 L 124.44 111.87 L 124.85 112.34 L 125.29 112.86 L 125.76 113.41 L 126.25 114.00 L 126.76 114.62 L 127.31 115.29 L 127.88 116.02 L 128.48 116.82 L 129.12 117.69 L 129.78 118.62 L 130.48 119.63 L 131.20 120.70 L 131.95 121.84 L 132.74 123.05 L 133.56 124.32 L 134.40 125.67 L 135.28 127.08 L 136.18 128.56 L 137.12 130.11 L 138.08 131.72 L 139.08 133.40 L 140.11 135.16 L 141.08 136.80 L 141.99 138.35 L 142.85 139.80 L 143.65 141.14 L 144.39 142.38 L 145.08 143.52 L 145.71 144.56 L 146.28 145.50 L 146.80 146.33 L 147.26 147.06 L 147.67 147.69 L 148.01 148.22 L 148.30 148.65 L 148.54 148.97 L 148.71 149.19 L 148.84 149.32 L 148.96 149.43 L 149.10 149.53 L 149.24 149.63 L 149.39 149.72 L 149.55 149.81 L 149.72 149.88 L 149.89 149.95 L 150.07 150.01 L 150.26 150.06 L 150.46 150.11 L 150.66 150.14 L 150.87 150.17 L 151.09 150.20 L 151.32 150.21 L 151.55 150.22 L 151.79 150.22 L 152.03 150.21 L 152.26 150.19 L 152.49 150.15 L 152.72 150.11 L 152.94 150.05 L 153.16 149.98 L 153.37 149.90 L 153.59 149.81 L 153.79 149.71 L 154.00 149.60 L 154.20 149.47 L 154.39 149.34 L 154.59 149.19 L 154.77 149.03 L 154.96 148.86 L 155.14 148.68 L 155.40 148.37 L 155.75 147.92 L 156.18 147.34 L 156.70 146.63 L 157.29 145.79 L 157.97 144.82 L 158.73 143.71 L 159.58 142.47 L 160.51 141.10 L 161.52 139.60 L 162.62 137.97 L 163.79 136.20 L 165.05 134.30 L 166.40 132.27 L 167.82 130.11 L 169.33 127.82 L 170.75 125.66 L 172.08 123.63 L 173.32 121.73 L 174.47 119.96 L 175.53 118.33 L 176.49 116.83 L 177.37 115.46 L 178.15 114.22 L 178.85 113.11 L 179.45 112.14 L 179.96 111.30 L 180.39 110.59 L 180.72 110.01 L 180.96 109.56 L 181.11 109.25 L 181.17 109.07 L 181.24 108.89 L 181.31 108.71 L 181.40 108.53 L 181.49 108.34 L 181.58 108.16 L 181.69 107.98 L 181.80 107.80 L 181.92 107.62 L 182.05 107.44 L 182.19 107.26 L 182.33 107.08 L 182.48 106.89 L 182.64 106.71 L 182.81 106.53 L 182.98 106.35 L 183.16 106.17 L 183.36 105.95 L 183.58 105.68 L 183.82 105.38 L 184.07 105.03 L 184.35 104.64 L 184.64 104.21 L 184.96 103.74 L 185.29 103.23 L 185.64 102.67 L 186.01 102.08 L 186.40 101.44 L 186.81 100.76 L 187.23 100.04 L 187.68 99.28 L 188.14 98.47 L 188.63 97.63 L 189.12 96.77 L 189.64 95.90 L 190.17 95.02 L 190.71 94.13 L 191.27 93.23 L 191.84 92.32 L 192.43 91.39 L 193.04 90.46 L 193.65 89.51 L 194.29 88.55 L 194.94 87.58 L 195.60 86.60 L 196.28 85.61 L 196.98 84.60 L 197.69 83.59 L 198.41 82.56 L 199.11 81.57 L 199.77 80.61 L 200.41 79.68 L 201.01 78.79 L 201.58 77.94 L 202.13 77.11 L 202.64 76.33 L 203.12 75.57 L 203.58 74.85 L 204.00 74.16 L 204.39 73.51 L 204.75 72.89 L 205.09 72.30 L 205.39 71.75 L 205.66 71.24 L 205.90 70.75 L 206.13 70.27 L 206.34 69.80 L 206.53 69.33 L 206.71 68.86 L 206.88 68.39 L 207.03 67.93 L 207.17 67.48 L 207.29 67.02 L 207.39 66.58 L 207.48 66.13 L 207.56 65.69 L 207.62 65.25 L 207.66 64.82 L 207.69 64.39 L 207.71 63.96 L 207.71 63.54 L 207.69 63.11 L 207.65 62.68 L 207.60 62.25 L 207.52 61.81 L 207.43 61.37 L 207.31 60.92 L 207.18 60.48 L 207.03 60.02 L 206.86 59.57 L 206.67 59.11 L 206.46 58.64 L 206.24 58.17 L 205.99 57.70 L 205.73 57.23 L 205.45 56.75 L 205.14 56.26 L 204.84 55.80 L 204.53 55.37 L 204.22 54.95 L 203.90 54.56 L 203.58 54.19 L 203.25 53.84 L 202.92 53.52 L 202.59 53.21 L 202.26 52.93 L 201.92 52.68 L 201.57 52.44 L 201.23 52.23 L 200.87 52.04 L 200.52 51.88 L 200.16 51.74 L 199.80 51.61 L 199.46 51.51 L 199.14 51.43 L 198.85 51.37 L 198.58 51.32 L 198.33 51.29 L 198.10 51.29 L 197.90 51.30 L 197.71 51.33 L 197.56 51.38 L 197.42 51.44 L 197.31 51.53 L 197.22 51.64 L 197.15 51.76 L 197.10 51.90 L 197.08 52.06 L 197.08 52.25 L 197.06 52.44 L 197.03 52.64 L 196.99 52.86 L 196.93 53.08 L 196.85 53.32 L 196.76 53.57 L 196.66 53.83 L 196.54 54.10 L 196.40 54.38 L 196.25 54.68 L 196.08 54.98 L 195.90 55.30 L 195.71 55.63 L 195.50 55.97 L 195.27 56.32 L 195.03 56.68 L 194.79 57.03 L 194.56 57.36 L 194.33 57.68 L 194.10 57.98 L 193.88 58.27 L 193.66 58.54 L 193.45 58.80 L 193.23 59.04 L 193.03 59.26 L 192.82 59.47 L 192.62 59.67 L 192.43 59.85 L 192.23 60.02 L 192.05 60.17 L 191.86 60.30 L 191.68 60.43 L 191.48 60.54 L 191.27 60.64 L 191.05 60.74 L 190.80 60.83 L 190.55 60.92 L 190.28 60.99 L 189.99 61.06 L 189.69 61.12 L 189.37 61.17 L 189.04 61.22 L 188.69 61.25 L 188.33 61.28 L 187.95 61.31 L 187.56 61.32 L 187.15 61.33 L 186.73 61.33 L 186.31 61.31 L 185.89 61.27 L 185.48 61.22 L 185.08 61.14 L 184.67 61.05 L 184.27 60.93 L 183.88 60.80 L 183.48 60.65 L 183.10 60.48 L 182.71 60.29 L 182.33 60.08 L 181.95 59.86 L 181.58 59.61 L 181.21 59.35 L 180.84 59.07 L 180.48 58.76 L 180.14 58.47 L 179.82 58.18 L 179.53 57.90 L 179.26 57.63 L 179.01 57.37 L 178.78 57.11 L 178.58 56.86 L 178.39 56.62 L 178.24 56.39 L 178.10 56.16 L 177.99 55.94 L 177.90 55.73 L 177.83 55.53 L 177.78 55.33 L 177.76 55.14 L 177.76 54.96 L 177.78 54.78 L 177.81 54.60 L 177.85 54.42 L 177.91 54.23 L 177.99 54.05 L 178.08 53.87 L 178.18 53.69 L 178.30 53.51 L 178.44 53.33 L 178.59 53.15 L 178.76 52.97 L 178.94 52.79 L 179.13 52.61 L 179.34 52.43 L 179.57 52.25 L 179.81 52.06 L 180.05 51.89 L 180.28 51.73 L 180.51 51.57 L 180.74 51.42 L 180.96 51.27 L 181.18 51.14 L 181.39 51.01 L 181.61 50.89 L 181.81 50.78 L 182.02 50.67 L 182.22 50.57 L 182.41 50.48 L 182.61 50.40 L 182.79 50.32 L 182.98 50.26 L 183.16 50.19 L 183.34 50.14 L 183.51 50.10 L 183.68 50.06 L 183.85 50.03 L 184.01 50.01 L 184.17 49.99 L 184.32 49.98 L 184.47 49.98 L 184.62 49.99 L 184.76 50.01 L 184.90 50.03 L 185.04 50.06 L 185.17 50.10 L 185.30 50.14 L 185.42 50.19 L 185.55 50.26 L 185.66 50.34 L 185.76 50.44 L 185.86 50.57 L 185.95 50.72 L 186.04 50.90 L 186.11 51.09 L 186.18 51.31 L 186.24 51.55 L 186.29 51.82 L 186.34 52.11 L 186.37 52.41 L 186.40 52.75 L 186.43 53.10 L 186.44 53.48 L 186.45 53.88 L 186.45 54.30 L 186.45 54.70 L 186.46 55.08 L 186.47 55.43 L 186.49 55.76 L 186.51 56.07 L 186.53 56.36 L 186.56 56.62 L 186.59 56.87 L 186.62 57.08 L 186.66 57.28 L 186.70 57.45 L 186.75 57.60 L 186.79 57.73 L 186.85 57.84 L 186.90 57.92 L 186.97 57.98 L 187.03 58.03 L 187.09 58.08 L 187.15 58.12 L 187.21 58.14 L 187.27 58.17 L 187.33 58.18 L 187.39 58.19 L 187.45 58.19 L 187.51 58.18 L 187.57 58.17 L 187.63 58.14 L 187.69 58.12 L 187.75 58.08 L 187.81 58.03 L 187.87 57.98 L 187.94 57.92 L 187.99 57.83 L 188.05 57.72 L 188.09 57.58 L 188.14 57.42 L 188.18 57.22 L 188.22 57.00 L 188.25 56.76 L 188.28 56.49 L 188.31 56.19 L 188.33 55.87 L 188.35 55.51 L 188.37 55.14 L 188.38 54.73 L 188.39 54.30 L 188.39 53.85 L 188.39 53.36 L 188.40 52.90 L 188.41 52.47 L 188.44 52.05 L 188.47 51.66 L 188.50 51.29 L 188.55 50.94 L 188.60 50.62 L 188.66 50.31 L 188.73 50.03 L 188.80 49.78 L 188.89 49.54 L 188.98 49.33 L 189.08 49.14 L 189.18 48.98 L 189.29 48.84 L 189.42 48.71 L 189.57 48.60 L 189.77 48.48 L 190.00 48.38 L 190.28 48.27 L 190.58 48.17 L 190.93 48.07 L 191.32 47.98 L 191.74 47.88 L 192.20 47.80 L 192.70 47.71 L 193.23 47.64 L 193.81 47.56 L 194.42 47.49 L 195.07 47.42 L 195.75 47.36 L 196.48 47.29 L 197.19 47.25 L 197.88 47.21 L 198.56 47.18 L 199.22 47.17 L 199.87 47.16 L 200.51 47.17 L 201.13 47.19 L 201.73 47.22 L 202.32 47.26 L 202.89 47.31 L 203.45 47.38 L 203.99 47.45 L 204.52 47.54 L 205.04 47.64 L 205.53 47.74 L 206.02 47.87 L 206.50 48.01 L 206.99 48.17 L 207.49 48.36 L 207.99 48.57 L 208.49 48.81 L 208.99 49.06 L 209.50 49.34 L 210.02 49.65 L 210.54 49.97 L 211.06 50.32 L 211.58 50.69 L 212.11 51.08 L 212.64 51.50 L 213.18 51.93 L 213.72 52.39 L 214.26 52.88 L 214.78 53.34 L 215.27 53.80 L 215.73 54.24 L 216.17 54.66 L 216.58 55.07 L 216.97 55.46 L 217.33 55.84 L 217.66 56.20 L 217.97 56.55 L 218.24 56.88 L 218.50 57.20 L 218.72 57.50 L 218.92 57.79 L 219.10 58.06 L 219.24 58.31 L 219.37 58.56 L 219.48 58.82 L 219.60 59.10 L 219.70 59.39 L 219.81 59.71 L 219.91 60.05 L 220.01 60.40 L 220.10 60.78 L 220.20 61.17 L 220.28 61.58 L 220.37 62.01 L 220.44 62.46 L 220.52 62.93 L 220.59 63.41 L 220.66 63.92 L 220.72 64.44 L 220.79 64.99 L 220.83 65.53 L 220.87 66.06 L 220.90 66.59 L 220.91 67.12 L 220.92 67.65 L 220.91 68.17 L 220.89 68.68 L 220.86 69.20 L 220.82 69.71 L 220.77 70.21 L 220.70 70.71 L 220.63 71.21 L 220.54 71.71 L 220.44 72.20 L 220.33 72.68 L 220.21 73.17 L 219.95 73.84 L 219.55 74.71 L 219.01 75.77 L 218.33 77.02 L 217.51 78.47 L 216.55 80.11 L 215.45 81.94 L 214.21 83.96 L 212.84 86.18 L 211.32 88.59 L 209.66 91.19 L 207.86 93.98 L 205.93 96.96 L 203.85 100.14 L 201.64 103.51 L 199.28 107.08 L 197.04 110.47 L 194.92 113.69 L 192.92 116.75 L 191.03 119.63 L 189.26 122.34 L 187.61 124.89 L 186.07 127.26 L 184.65 129.47 L 183.35 131.50 L 182.17 133.36 L 181.10 135.06 L 180.15 136.58 L 179.31 137.94 L 178.60 139.12 L 178.00 140.14 L 177.51 140.98 L 177.04 141.80 L 176.58 142.58 L 176.13 143.34 L 175.69 144.06 L 175.27 144.76 L 174.85 145.42 L 174.45 146.05 L 174.06 146.66 L 173.68 147.23 L 173.31 147.77 L 172.95 148.29 L 172.60 148.77 L 172.26 149.22 L 171.94 149.65 L 171.63 150.04 L 171.32 150.40 L 171.04 150.75 L 170.77 151.09 L 170.51 151.42 L 170.27 151.74 L 170.04 152.04 L 169.83 152.34 L 169.63 152.62 L 169.45 152.89 L 169.29 153.15 L 169.14 153.40 L 169.00 153.64 L 168.88 153.87 L 168.78 154.08 L 168.69 154.29 L 168.61 154.48 L 168.55 154.66 L 168.47 154.85 L 168.37 155.06 L 168.26 155.27 L 168.12 155.50 L 167.97 155.74 L 167.79 155.99 L 167.60 156.25 L 167.39 156.52 L 167.16 156.80 L 166.91 157.10 L 166.64 157.40 L 166.36 157.72 L 166.05 158.05 L 165.72 158.39 L 165.38 158.74 L 165.02 159.10 L 164.66 159.45 L 164.29 159.79 L 163.93 160.12 L 163.57 160.44 L 163.21 160.74 L 162.84 161.04 L 162.48 161.32 L 162.12 161.59 L 161.76 161.85 L 161.39 162.10 L 161.03 162.34 L 160.67 162.56 L 160.31 162.78 L 159.94 162.98 L 159.58 163.17 L 159.22 163.36 L 158.84 163.52 L 158.45 163.68 L 158.04 163.83 L 157.62 163.96 L 157.18 164.09 L 156.73 164.20 L 156.26 164.30 L 155.78 164.39 L 155.28 164.47 L 154.76 164.54 L 154.24 164.60 L 153.69 164.64 L 153.13 164.68 L 152.56 164.70 L 151.97 164.71 L 151.37 164.71 L 150.78 164.70 L 150.21 164.68 L 149.65 164.64 L 149.10 164.60 L 148.58 164.54 L 148.06 164.47 L 147.56 164.39 L 147.08 164.30 L 146.61 164.20 L 146.16 164.09 L 145.72 163.96 L 145.30 163.83 L 144.89 163.68 L 144.50 163.52 L 144.12 163.36 L 143.76 163.17 L 143.39 162.98 L 143.02 162.76 L 142.65 162.52 L 142.27 162.26 L 141.89 161.99 L 141.50 161.69 L 141.12 161.38 L 140.72 161.05 L 140.33 160.70 L 139.93 160.33 L 139.52 159.94 L 139.12 159.53 L 138.70 159.11 L 138.29 158.66 L 137.87 158.20 L 137.45 157.71 L 137.05 157.24 L 136.66 156.78 L 136.29 156.33 L 135.95 155.89 L 135.62 155.47 L 135.31 155.05 L 135.02 154.65 L 134.75 154.26 L 134.50 153.88 L 134.26 153.51 L 134.05 153.15 L 133.85 152.80 L 133.67 152.46 L 133.51 152.14 L 133.38 151.83 L 133.25 151.52 L 133.13 151.22 L 132.99 150.92 L 132.85 150.62 L 132.70 150.32 L 132.54 150.01 L 132.37 149.71 L 132.20 149.41 L 132.02 149.11 L 131.83 148.81 L 131.63 148.51 L 131.43 148.20 L 131.22 147.90 L 131.00 147.60 L 130.77 147.30 L 130.54 147.00 L 130.29 146.69 L 130.03 146.35 L 129.75 145.97 L 129.46 145.54 L 129.14 145.07 L 128.80 144.56 L 128.45 144.01 L 128.07 143.42 L 127.68 142.78 L 127.27 142.11 L 126.84 141.39 L 126.39 140.63 L 125.92 139.83 L 125.44 138.99 L 124.93 138.11 L 124.41 137.18 L 123.86 136.22 L 123.34 135.30 L 122.82 134.44 L 122.32 133.63 L 121.84 132.88 L 121.37 132.18 L 120.92 131.53 L 120.48 130.93 L 120.06 130.39 L 119.65 129.90 L 119.26 129.46 L 118.88 129.07 L 118.52 128.74 L 118.17 128.46 L 117.84 128.23 L 117.53 128.06 L 117.22 127.94 L 116.92 127.84 L 116.62 127.78 L 116.32 127.73 L 116.02 127.72 L 115.71 127.73 L 115.41 127.77 L 115.11 127.83 L 114.81 127.92 L 114.51 128.04 L 114.21 128.18 L 113.90 128.35 L 113.60 128.55 L 113.30 128.77 L 113.00 129.02 L 112.70 129.29 L 112.39 129.60 L 112.08 129.93 L 111.76 130.29 L 111.42 130.68 L 111.07 131.11 L 110.71 131.56 L 110.34 132.04 L 109.96 132.56 L 109.57 133.10 L 109.17 133.67 L 108.75 134.28 L 108.33 134.91 L 107.89 135.58 L 107.44 136.27 L 106.98 137.00 L 106.51 137.75 L 106.02 138.54 L 105.50 139.36 L 104.94 140.23 L 104.35 141.14 L 103.71 142.09 L 103.04 143.09 L 102.33 144.12 L 101.58 145.20 L 100.80 146.31 L 99.98 147.47 L 99.11 148.67 L 98.22 149.92 L 97.28 151.20 L 96.31 152.52 L 95.29 153.89 L 94.24 155.30 L 93.16 156.74 L 92.13 158.11 L 91.17 159.40 L 90.28 160.62 L 89.45 161.75 L 88.68 162.80 L 87.98 163.77 L 87.34 164.67 L 86.77 165.48 L 86.26 166.22 L 85.81 166.87 L 85.43 167.45 L 85.12 167.95 L 84.86 168.37 L 84.67 168.71 L 84.55 168.97 L 84.49 169.15 L 84.38 169.39 L 84.23 169.68 L 84.04 170.03 L 83.80 170.44 L 83.51 170.91 L 83.18 171.43 L 82.80 172.00 L 82.38 172.64 L 81.91 173.33 L 81.40 174.08 L 80.84 174.88 L 80.24 175.74 L 79.59 176.66 L 78.89 177.63 L 78.15 178.66 L 77.37 179.75 L 76.57 180.82 L 75.77 181.88 L 74.97 182.92 L 74.15 183.95 L 73.33 184.96 L 72.50 185.95 L 71.66 186.93 L 70.82 187.90 L 69.96 188.85 L 69.10 189.79 L 68.23 190.71 L 67.36 191.61 L 66.48 192.51 L 65.59 193.38 L 64.69 194.24 L 63.78 195.09 L 62.89 195.90 L 62.00 196.69 L 61.13 197.44 L 60.27 198.17 L 59.42 198.86 L 58.59 199.53 L 57.76 200.16 L 56.94 200.77 L 56.14 201.34 L 55.35 201.88 L 54.57 202.40 L 53.80 202.88 L 53.04 203.33 L 52.29 203.76 L 51.55 204.15 L 50.83 204.51 L 50.13 204.85 L 49.47 205.17 L 48.83 205.46 L 48.23 205.73 L 47.66 205.98 L 47.11 206.21 L 46.60 206.41 L 46.12 206.60 L 45.66 206.75 L 45.24 206.89 L 44.85 207.00 L 44.49 207.09 L 44.15 207.16 L 43.85 207.21 L 43.58 207.23 L 43.34 207.23 L 43.09 207.24 L 42.85 207.25 L 42.59 207.28 L 42.34 207.31 L 42.08 207.34 L 41.81 207.39 L 41.54 207.44 L 41.27 207.50 L 41.00 207.57 L 40.72 207.64 L 40.44 207.73 L 40.15 207.82 L 39.86 207.92 L 39.56 208.02 L 39.27 208.13 L 38.96 208.26 L 38.65 208.37 L 38.34 208.47 L 38.01 208.57 L 37.68 208.66 L 37.34 208.75 L 36.99 208.82 L 36.64 208.89 L 36.28 208.95 L 35.91 209.00 L 35.53 209.05 L 35.14 209.08 L 34.75 209.11 L 34.35 209.14 L 33.94 209.15 L 33.53 209.16 L 33.10 209.16 L 32.70 209.17 L 32.31 209.18 L 31.95 209.21 L 31.60 209.24 L 31.27 209.27 L 30.96 209.32 L 30.67 209.37 L 30.40 209.43 L 30.15 209.50 L 29.91 209.57 L 29.70 209.66 L 29.50 209.75 L 29.32 209.85 L 29.16 209.95 L 29.03 210.06 L 28.90 210.19 L 28.79 210.31 L 28.69 210.44 L 28.59 210.57 L 28.50 210.71 L 28.41 210.85 L 28.34 210.99 L 28.27 211.14 L 28.21 211.29 L 28.16 211.44 L 28.11 211.60 L 28.08 211.76 L 28.05 211.93 L 28.02 212.10 L 28.01 212.27 L 28.00 212.45 L 28.00 212.63 L 28.01 212.81 L 28.02 212.98 L 28.05 213.15 L 28.08 213.32 L 28.11 213.48 L 28.16 213.64 L 28.21 213.79 L 28.27 213.94 L 28.34 214.09 L 28.41 214.23 L 28.50 214.37 L 28.59 214.51 L 28.69 214.64 L 28.79 214.77 L 28.90 214.89 L 29.03 215.02 L 29.19 215.12 L 29.40 215.22 L 29.66 215.31 L 29.96 215.38 L 30.31 215.45 L 30.70 215.50 L 31.14 215.54 L 31.62 215.57 L 32.15 215.59 L 32.72 215.60 L 33.34 215.60 L 34.01 215.58 L 34.72 215.56 L 35.47 215.52 L 36.27 215.47 L 37.12 215.41 L 37.96 215.33 L 38.80 215.24 L 39.63 215.14 L 40.46 215.02 L 41.29 214.88 L 42.11 214.73 L 42.93 214.57 L 43.75 214.39 L 44.56 214.19 L 45.37 213.98 L 46.17 213.75 L 46.97 213.51 L 47.77 213.25 L 48.56 212.98 L 49.35 212.70 L 50.13 212.39 L 50.90 212.09 L 51.65 211.79 L 52.37 211.49 L 53.08 211.19 L 53.77 210.88 L 54.45 210.58 L 55.10 210.28 L 55.73 209.98 L 56.35 209.68 L 56.94 209.37 L 57.52 209.07 L 58.08 208.77 L 58.62 208.47 L 59.14 208.16 L 59.64 207.86 L 60.13 207.56 L 60.63 207.22 L 61.16 206.85 L 61.71 206.45 L 62.29 206.01 L 62.88 205.54 L 63.50 205.03 L 64.14 204.49 L 64.81 203.92 L 65.49 203.31 L 66.20 202.67 L 66.94 201.99 L 67.69 201.28 L 68.47 200.54 L 69.27 199.76 L 70.09 198.95 L 70.94 198.11 L 71.88 197.10 L 72.91 195.94 L 74.04 194.62 L 75.26 193.14 L 76.58 191.50 L 77.99 189.71 L 79.50 187.75 L 81.10 185.64 L 82.79 183.37 L 84.58 180.94 L 86.47 178.35 L 88.44 175.60 L 90.52 172.69 L 92.68 169.63 L 94.94 166.41 L 97.30 163.02 L 99.52 159.86 L 101.60 156.91 L 103.55 154.17 L 105.36 151.65 L 107.03 149.34 L 108.57 147.25 L 109.98 145.38 L 111.25 143.71 L 112.38 142.27 L 113.38 141.04 L 114.24 140.02 L 114.96 139.22 L 115.55 138.64 L 116.00 138.27 L 116.32 138.11 L 116.50 138.18 L 116.71 138.31 L 116.95 138.51 L 117.23 138.79 L 117.53 139.13 L 117.86 139.55 L 118.22 140.04 L 118.61 140.61 L 119.04 141.24 L 119.49 141.95 L 119.97 142.72 L 120.48 143.57 L 121.03 144.49 L 121.60 145.49 L 122.20 146.55 L 122.84 147.69 L 123.50 148.89 L 124.16 150.06 L 124.81 151.20 L 125.45 152.29 L 126.08 153.35 L 126.71 154.37 L 127.33 155.35 L 127.94 156.29 L 128.54 157.20 L 129.14 158.06 L 129.73 158.89 L 130.31 159.69 L 130.88 160.44 L 131.45 161.16 L 132.01 161.84 L 132.56 162.48 L 133.10 163.08 L 133.64 163.66 L 134.18 164.22 L 134.71 164.76 L 135.24 165.27 L 135.76 165.76 L 136.28 166.23 L 136.80 166.67 L 137.32 167.10 L 137.83 167.50 L 138.33 167.88 L 138.83 168.23 L 139.33 168.56 L 139.83 168.87 L 140.32 169.16 L 140.80 169.42 L 141.29 169.67 L 141.79 169.89 L 142.31 170.10 L 142.85 170.30 L 143.41 170.48 L 143.99 170.65 L 144.58 170.80 L 145.20 170.94 L 145.83 171.06 L 146.48 171.16 L 147.16 171.25 L 147.85 171.33 L 148.56 171.39 L 149.28 171.43 L 150.03 171.46 L 150.80 171.48 L 151.58 171.48 L 152.35 171.47 L 153.10 171.45 L 153.82 171.41 L 154.53 171.37 L 155.22 171.31 L 155.90 171.24 L 156.55 171.16 L 157.18 171.07 L 157.80 170.97 L 158.39 170.86 L 158.97 170.73 L 159.53 170.60 L 160.07 170.45 L 160.59 170.29 L 161.09 170.12 L 161.58 169.94 L 162.06 169.74 L 162.55 169.51 L 163.05 169.26 L 163.55 168.99 L 164.05 168.69 L 164.55 168.38 L 165.06 168.04 L 165.58 167.67 L 166.09 167.29 L 166.61 166.88 L 167.14 166.45 L 167.67 166.00 L 168.20 165.52 L 168.73 165.02 L 169.27 164.50 L 169.82 163.96 L 170.37 163.37 L 170.94 162.75 L 171.51 162.08 L 172.10 161.37 L 172.70 160.62 L 173.31 159.82 L 173.94 158.99 L 174.57 158.11 L 175.22 157.20 L 175.87 156.24 L 176.54 155.24 L 177.22 154.20 L 177.91 153.11 L 178.61 151.99 L 179.33 150.82 L 180.05 149.62 L 180.88 148.27 L 181.80 146.78 L 182.82 145.16 L 183.93 143.39 L 185.15 141.48 L 186.46 139.44 L 187.87 137.25 L 189.38 134.93 L 190.99 132.46 L 192.70 129.86 L 194.50 127.12 L 196.40 124.23 L 198.40 121.21 L 200.50 118.05 L 202.70 114.75 L 204.99 111.30 L 207.16 108.05 L 209.20 104.98 L 211.11 102.09 L 212.89 99.39 L 214.54 96.87 L 216.06 94.54 L 217.46 92.39 L 218.73 90.43 L 219.87 88.65 L 220.88 87.06 L 221.76 85.65 L 222.52 84.43 L 223.15 83.39 L 223.64 82.53 L 224.01 81.87 L 224.26 81.38 L 224.49 80.90 L 224.72 80.43 L 224.94 79.96 L 225.15 79.49 L 225.35 79.02 L 225.55 78.56 L 225.74 78.11 L 225.92 77.65 L 226.09 77.21 L 226.26 76.76 L 226.42 76.32 L 226.57 75.88 L 226.71 75.45 L 226.85 75.02 L 226.97 74.59 L 227.10 74.17 L 227.21 73.74 L 227.31 73.31 L 227.41 72.88 L 227.50 72.44 L 227.59 72.00 L 227.66 71.55 L 227.73 71.11 L 227.79 70.65 L 227.84 70.20 L 227.89 69.74 L 227.92 69.27 L 227.95 68.80 L 227.98 68.33 L 227.99 67.86 L 228.00 67.38 L 228.00 66.89 L 227.99 66.41 L 227.98 65.94 L 227.95 65.47 L 227.92 65.00 L 227.89 64.53 L 227.84 64.07 L 227.79 63.62 L 227.73 63.16 L 227.66 62.71 L 227.59 62.27 L 227.50 61.83 L 227.41 61.39 L 227.31 60.95 L 227.21 60.52 L 227.10 60.10 L 226.97 59.67 L 226.84 59.25 L 226.70 58.82 L 226.54 58.38 L 226.38 57.94 L 226.20 57.50 L 226.01 57.06 L 225.81 56.61 L 225.60 56.15 L 225.38 55.70 L 225.15 55.24 L 224.90 54.77 L 224.64 54.30 L 224.38 53.83 L 224.10 53.36 L 223.81 52.88 L 223.50 52.39 L 223.19 51.92 L 222.87 51.45 L 222.53 50.99 L 222.18 50.54 L 221.82 50.09 L 221.45 49.65 L 221.07 49.22 L 220.68 48.80 L 220.28 48.39 L 219.86 47.98 L 219.44 47.58 L 219.00 47.19 L 218.55 46.80 L 218.09 46.43 Z" fill="#FFFFFF" fill-rule="evenodd" filter="url(#soft-shadow)"/>
    </g>
  </g>
</svg>